<svg xmlns="http://www.w3.org/2000/svg" viewBox="0 0 960 520" role="img" aria-labelledby="title"><title id="title">Synthetic preference-aware Similar results</title><defs><linearGradient id="sg" x1="0" x2="1"><stop stop-color="#45a3ff"/><stop offset="1" stop-color="#8b6cff"/></linearGradient></defs><rect width="960" height="520" fill="#08111f"/><rect width="960" height="58" fill="#101b2d"/><text x="30" y="36" fill="#f4f7fb" font-family="system-ui" font-size="20" font-weight="700">Similar</text><g transform="translate(30 88)"><text y="18" fill="#9e8cff" font-family="system-ui" font-size="12" font-weight="700">COMPARING FROM</text><rect y="34" width="900" height="82" rx="12" fill="#101b2d" stroke="#293a55"/><rect x="10" y="44" width="105" height="62" rx="7" fill="#344a72"/><text x="135" y="72" fill="#f4f7fb" font-family="system-ui" font-size="18" font-weight="700">Northern Light</text><text x="135" y="96" fill="#aebbd0" font-family="system-ui" font-size="13">Reference scene · Library</text><text y="157" fill="#f4f7fb" font-family="system-ui" font-size="22" font-weight="700">Preference-aware matches</text><g transform="translate(0 180)"><rect width="284" height="190" rx="12" fill="#101b2d" stroke="#293a55"/><rect x="10" y="10" width="264" height="95" rx="8" fill="#2d4468"/><text x="15" y="135" fill="#f4f7fb" font-family="system-ui" font-size="17" font-weight="700">Soft Current</text><text x="15" y="161" fill="#78bcff" font-family="system-ui" font-size="13">Similarity .86 · strong fit</text></g><g transform="translate(308 180)"><rect width="284" height="190" rx="12" fill="#101b2d" stroke="#293a55"/><rect x="10" y="10" width="264" height="95" rx="8" fill="#493b70"/><text x="15" y="135" fill="#f4f7fb" font-family="system-ui" font-size="17" font-weight="700">Parallel Lines</text><text x="15" y="161" fill="#78bcff" font-family="system-ui" font-size="13">Similarity .79 · familiar content</text></g><g transform="translate(616 180)"><rect width="284" height="190" rx="12" fill="#101b2d" stroke="#293a55"/><rect x="10" y="10" width="264" height="95" rx="8" fill="url(#sg)" opacity=".45"/><text x="15" y="135" fill="#f4f7fb" font-family="system-ui" font-size="17" font-weight="700">Afterglow</text><text x="15" y="161" fill="#78bcff" font-family="system-ui" font-size="13">Similarity .74 · varied studio</text></g></g></svg>
