<svg xmlns="http://www.w3.org/2000/svg" viewBox="0 0 960 560" role="img" aria-labelledby="title">
  <title id="title">Synthetic Curator For You recommendations with score evidence</title>
  <defs><linearGradient id="g" x1="0" x2="1"><stop stop-color="#45a3ff"/><stop offset="1" stop-color="#8b6cff"/></linearGradient></defs>
  <rect width="960" height="560" fill="#08111f"/><rect width="960" height="58" fill="#101b2d"/>
  <circle cx="32" cy="29" r="16" fill="url(#g)"/><path d="m37 18-4 13-10 11 4-13 10-11Z" fill="white"/><text x="58" y="36" fill="#f4f7fb" font-family="system-ui" font-size="20" font-weight="700">Stash Curator</text>
  <g font-family="system-ui" font-size="13" fill="#aebbd0"><text x="292" y="35" fill="#78bcff">For You</text><text x="365" y="35">Best Bets</text><text x="448" y="35">Revisit</text><text x="513" y="35">Discover</text><text x="590" y="35">Adventure</text></g>
  <text x="34" y="102" fill="#f4f7fb" font-family="system-ui" font-size="26" font-weight="700">For You</text><text x="34" y="127" fill="#aebbd0" font-family="system-ui" font-size="14">A varied slate for right now</text>
  <g transform="translate(34 154)"><rect width="202" height="330" rx="12" fill="#101b2d" stroke="#293a55"/><rect x="10" y="10" width="182" height="190" rx="8" fill="#243552"/><circle cx="77" cy="85" r="55" fill="#37527b" opacity=".65"/><circle cx="135" cy="121" r="65" fill="#684fa5" opacity=".55"/><text x="14" y="229" fill="#f4f7fb" font-family="system-ui" font-size="18" font-weight="700">Quiet Orbit</text><text x="14" y="254" fill="#44d19d" font-family="system-ui" font-size="12">BEST BET</text><text x="14" y="282" fill="#aebbd0" font-family="system-ui" font-size="13">Strong familiar content</text><rect x="14" y="300" width="174" height="1" fill="#293a55"/><text x="14" y="321" fill="#78bcff" font-family="system-ui" font-size="13">Why this?</text></g>
  <g transform="translate(252 154)"><rect width="202" height="330" rx="12" fill="#101b2d" stroke="#293a55"/><rect x="10" y="10" width="182" height="190" rx="8" fill="#2c294a"/><rect x="38" y="40" width="125" height="125" rx="62" fill="#784f93" opacity=".7"/><text x="14" y="229" fill="#f4f7fb" font-family="system-ui" font-size="18" font-weight="700">Blue Hour</text><text x="14" y="254" fill="#bcaeff" font-family="system-ui" font-size="12">REVISIT</text><text x="14" y="282" fill="#aebbd0" font-family="system-ui" font-size="13">Cooldown recovered</text></g>
  <g transform="translate(470 154)"><rect width="456" height="330" rx="12" fill="#101b2d" stroke="#4b5e7b"/><text x="22" y="37" fill="#f4f7fb" font-family="system-ui" font-size="19" font-weight="700">Why Quiet Orbit?</text><text x="22" y="67" fill="#aebbd0" font-family="system-ui" font-size="14">A strong match with good support, and it fits now.</text><text x="22" y="112" fill="#f4f7fb" font-family="system-ui" font-size="14">Appeal</text><rect x="122" y="100" width="250" height="12" rx="6" fill="#293a55"/><rect x="122" y="100" width="205" height="12" rx="6" fill="url(#g)"/><text x="390" y="112" fill="#f4f7fb" font-family="system-ui" font-size="14">82</text><text x="22" y="156" fill="#f4f7fb" font-family="system-ui" font-size="14">Current Fit</text><rect x="122" y="144" width="250" height="12" rx="6" fill="#293a55"/><rect x="122" y="144" width="193" height="12" rx="6" fill="#45a3ff"/><text x="390" y="156" fill="#f4f7fb" font-family="system-ui" font-size="14">77</text><text x="22" y="200" fill="#f4f7fb" font-family="system-ui" font-size="14">Confidence</text><rect x="122" y="188" width="250" height="12" rx="6" fill="#293a55"/><rect x="122" y="188" width="175" height="12" rx="6" fill="#44d19d"/><text x="390" y="200" fill="#f4f7fb" font-family="system-ui" font-size="14">High</text><rect x="22" y="228" width="412" height="1" fill="#293a55"/><text x="22" y="260" fill="#9e8cff" font-family="system-ui" font-size="12" font-weight="700">EVIDENCE</text><text x="22" y="288" fill="#aebbd0" font-family="system-ui" font-size="14">Shared content with 3 scenes you enjoyed</text><text x="22" y="313" fill="#aebbd0" font-family="system-ui" font-size="14">Varied from the previous performer and studio</text></g>
</svg>
