<svg xmlns="http://www.w3.org/2000/svg" width="1200" height="675" viewBox="0 0 1200 675"><defs><linearGradient id="bg" x2="1" y2="1"><stop stop-color="#101d35"/><stop offset="1" stop-color="#070d18"/></linearGradient><linearGradient id="c" x2="1" y2="1"><stop stop-color="#22a98d"/><stop offset="1" stop-color="#3070d7"/></linearGradient></defs><rect width="1200" height="675" fill="url(#bg)"/><rect x="24" y="20" width="1152" height="52" rx="12" fill="#162641"/><circle cx="54" cy="46" r="14" fill="#8068ff"/><text x="80" y="52" fill="white" font-family="system-ui, sans-serif" font-size="19" font-weight="700">Stash Curator</text><text x="928" y="51" fill="#98a9c5" font-family="system-ui, sans-serif" font-size="14">Synthetic demo data</text><rect x="24" y="92" width="210" height="560" rx="16" fill="#0b1527" stroke="#294260"/><text x="48" y="133" fill="#9baad0" font-family="system-ui, sans-serif" font-size="13" font-weight="700">FIND</text><rect x="40" y="147" width="178" height="42" rx="9" fill="#283f69"/><text x="58" y="174" fill="white" font-family="system-ui, sans-serif" font-size="17" font-weight="700">Similar</text><text x="58" y="225" fill="#a9b8d0" font-family="system-ui, sans-serif" font-size="17">Expand</text><text x="58" y="265" fill="#a9b8d0" font-family="system-ui, sans-serif" font-size="17">Performer Hunt</text><text x="48" y="338" fill="#9baad0" font-family="system-ui, sans-serif" font-size="13" font-weight="700">CURATE</text><text x="48" y="375" fill="#a9b8d0" font-family="system-ui, sans-serif" font-size="16">Pair picks</text><text x="48" y="411" fill="#a9b8d0" font-family="system-ui, sans-serif" font-size="16">Tag sentiment</text><text x="266" y="132" fill="white" font-family="system-ui, sans-serif" font-size="30" font-weight="700">Find</text><text x="266" y="161" fill="#aab8cf" font-family="system-ui, sans-serif" font-size="16">Follow related local and optional external metadata leads.</text><rect x="266" y="194" width="882" height="66" rx="12" fill="#12223a" stroke="#34516f"/><text x="292" y="234" fill="#b6c8e2" font-family="system-ui, sans-serif" font-size="17">Search from Scene 12</text><rect x="898" y="209" width="218" height="36" rx="9" fill="#365ee9"/><text x="940" y="233" fill="white" font-family="system-ui, sans-serif" font-size="14" font-weight="700">Find similar</text><g transform="translate(266 290)"><rect width="265" height="288" rx="15" fill="#12223a" stroke="#34516f"/><rect x="16" y="16" width="233" height="115" rx="10" fill="url(#c)"/><circle cx="75" cy="72" r="34" fill="#ffffff30"/><text x="18" y="166" fill="white" font-family="system-ui, sans-serif" font-size="20" font-weight="700">Similar</text><text x="18" y="198" fill="#b5c4d9" font-family="system-ui, sans-serif" font-size="15">Related local scenes and</text><text x="18" y="220" fill="#b5c4d9" font-family="system-ui, sans-serif" font-size="15">performers in your library.</text><rect x="18" y="241" width="110" height="28" rx="14" fill="#245a72"/><text x="34" y="260" fill="#c4f4ff" font-family="system-ui, sans-serif" font-size="13">Library results</text></g><g transform="translate(558 290)"><rect width="265" height="288" rx="15" fill="#12223a" stroke="#34516f"/><rect x="16" y="16" width="233" height="115" rx="10" fill="#664cb7"/><path d="M18 112L70 53l45 50 58-75 60 84z" fill="#ffffff35"/><text x="18" y="166" fill="white" font-family="system-ui, sans-serif" font-size="20" font-weight="700">Expand</text><text x="18" y="198" fill="#b5c4d9" font-family="system-ui, sans-serif" font-size="15">Optional StashDB metadata,</text><text x="18" y="220" fill="#b5c4d9" font-family="system-ui, sans-serif" font-size="15">scored against local taste.</text><rect x="18" y="241" width="104" height="28" rx="14" fill="#55468d"/><text x="34" y="260" fill="#e0d8ff" font-family="system-ui, sans-serif" font-size="13">External leads</text></g><g transform="translate(850 290)"><rect width="298" height="288" rx="15" fill="#12223a" stroke="#34516f"/><circle cx="68" cy="76" r="53" fill="#e09b57"/><path d="M35 90q33-62 66 0" fill="none" stroke="#fff6" stroke-width="13"/><text x="18" y="166" fill="white" font-family="system-ui, sans-serif" font-size="20" font-weight="700">Performer Hunt</text><text x="18" y="198" fill="#b5c4d9" font-family="system-ui, sans-serif" font-size="15">Browse one performer’s</text><text x="18" y="220" fill="#b5c4d9" font-family="system-ui, sans-serif" font-size="15">external catalog directly.</text><rect x="18" y="241" width="136" height="28" rx="14" fill="#73502b"/><text x="34" y="260" fill="#ffe4c4" font-family="system-ui, sans-serif" font-size="13">Select performer</text></g></svg>
